<svg xmlns="http://www.w3.org/2000/svg" width="1080" height="1190" viewBox="0 0 1080 1190">
<style>
text{font-family:Arial,'PingFang SC','Microsoft YaHei',sans-serif;fill:#1f2933} .muted{fill:#6b7280} .grid{stroke:#d9dee7;stroke-width:1;fill:none} .axis{stroke:#c6ccd6;stroke-width:1} .shape{fill:#2a9d8f;fill-opacity:.28;stroke:#1b7f74;stroke-width:2} .score{font-weight:700}
</style>
<rect width="100%" height="100%" fill="#fbfcfe"/>
<text x="24" y="30" font-size="22" font-weight="700">IEM Cologne Major 2026 Stage 1 因素雷达图</text>
<text x="24" y="54" font-size="13" class="muted">维度来自 VRS + 真实 HLTV 派生因素快照；暂缺的 veto、经济局、角色与韧性数据已在中文模型报告中说明。</text>
<g transform="translate(0,70)">
<text x="16" y="24" font-size="15" font-weight="700">B8</text>
<text x="16" y="43" font-size="12" class="muted">因素分 1570.02 | 综合 76.19</text>
<polygon class="grid" points="135.0,132.0 147.7,137.3 153.0,150.0 147.7,162.7 135.0,168.0 122.3,162.7 117.0,150.0 122.3,137.3"/>
<polygon class="grid" points="135.0,114.0 160.5,124.5 171.0,150.0 160.5,175.5 135.0,186.0 109.5,175.5 99.0,150.0 109.5,124.5"/>
<polygon class="grid" points="135.0,96.0 173.2,111.8 189.0,150.0 173.2,188.2 135.0,204.0 96.8,188.2 81.0,150.0 96.8,111.8"/>
<polygon class="grid" points="135.0,78.0 185.9,99.1 207.0,150.0 185.9,200.9 135.0,222.0 84.1,200.9 63.0,150.0 84.1,99.1"/>
<line class="axis" x1="135.0" y1="150.0" x2="135.0" y2="78.0"/>
<line class="axis" x1="135.0" y1="150.0" x2="185.9" y2="99.1"/>
<line class="axis" x1="135.0" y1="150.0" x2="207.0" y2="150.0"/>
<line class="axis" x1="135.0" y1="150.0" x2="185.9" y2="200.9"/>
<line class="axis" x1="135.0" y1="150.0" x2="135.0" y2="222.0"/>
<line class="axis" x1="135.0" y1="150.0" x2="84.1" y2="200.9"/>
<line class="axis" x1="135.0" y1="150.0" x2="63.0" y2="150.0"/>
<line class="axis" x1="135.0" y1="150.0" x2="84.1" y2="99.1"/>
<polygon class="shape" points="135.0,81.4 144.3,140.7 159.2,150.0 178.8,193.8 135.0,222.0 84.1,200.9 88.2,150.0 87.5,102.5"/>
<text x="135.0" y="59.0" text-anchor="middle" dominant-baseline="middle" font-size="9" class="muted">基础实力</text>
<text x="199.3" y="85.7" text-anchor="start" dominant-baseline="middle" font-size="9" class="muted">HLTV状态</text>
<text x="226.0" y="150.0" text-anchor="start" dominant-baseline="middle" font-size="9" class="muted">火力</text>
<text x="199.3" y="214.3" text-anchor="start" dominant-baseline="middle" font-size="9" class="muted">地图样本</text>
<text x="135.0" y="241.0" text-anchor="middle" dominant-baseline="middle" font-size="9" class="muted">样本置信</text>
<text x="70.7" y="214.3" text-anchor="end" dominant-baseline="middle" font-size="9" class="muted">对手池</text>
<text x="44.0" y="150.0" text-anchor="end" dominant-baseline="middle" font-size="9" class="muted">阵容数据</text>
<text x="70.7" y="85.7" text-anchor="end" dominant-baseline="middle" font-size="9" class="muted">种子路径</text>
</g>
<g transform="translate(270,70)">
<text x="16" y="24" font-size="15" font-weight="700">GamerLegion</text>
<text x="16" y="43" font-size="12" class="muted">因素分 1548.26 | 综合 71.01</text>
<polygon class="grid" points="135.0,132.0 147.7,137.3 153.0,150.0 147.7,162.7 135.0,168.0 122.3,162.7 117.0,150.0 122.3,137.3"/>
<polygon class="grid" points="135.0,114.0 160.5,124.5 171.0,150.0 160.5,175.5 135.0,186.0 109.5,175.5 99.0,150.0 109.5,124.5"/>
<polygon class="grid" points="135.0,96.0 173.2,111.8 189.0,150.0 173.2,188.2 135.0,204.0 96.8,188.2 81.0,150.0 96.8,111.8"/>
<polygon class="grid" points="135.0,78.0 185.9,99.1 207.0,150.0 185.9,200.9 135.0,222.0 84.1,200.9 63.0,150.0 84.1,99.1"/>
<line class="axis" x1="135.0" y1="150.0" x2="135.0" y2="78.0"/>
<line class="axis" x1="135.0" y1="150.0" x2="185.9" y2="99.1"/>
<line class="axis" x1="135.0" y1="150.0" x2="207.0" y2="150.0"/>
<line class="axis" x1="135.0" y1="150.0" x2="185.9" y2="200.9"/>
<line class="axis" x1="135.0" y1="150.0" x2="135.0" y2="222.0"/>
<line class="axis" x1="135.0" y1="150.0" x2="84.1" y2="200.9"/>
<line class="axis" x1="135.0" y1="150.0" x2="63.0" y2="150.0"/>
<line class="axis" x1="135.0" y1="150.0" x2="84.1" y2="99.1"/>
<polygon class="shape" points="135.0,78.0 135.0,150.0 135.0,150.0 171.7,186.7 135.0,222.0 84.1,200.9 88.2,150.0 84.1,99.1"/>
<text x="135.0" y="59.0" text-anchor="middle" dominant-baseline="middle" font-size="9" class="muted">基础实力</text>
<text x="199.3" y="85.7" text-anchor="start" dominant-baseline="middle" font-size="9" class="muted">HLTV状态</text>
<text x="226.0" y="150.0" text-anchor="start" dominant-baseline="middle" font-size="9" class="muted">火力</text>
<text x="199.3" y="214.3" text-anchor="start" dominant-baseline="middle" font-size="9" class="muted">地图样本</text>
<text x="135.0" y="241.0" text-anchor="middle" dominant-baseline="middle" font-size="9" class="muted">样本置信</text>
<text x="70.7" y="214.3" text-anchor="end" dominant-baseline="middle" font-size="9" class="muted">对手池</text>
<text x="44.0" y="150.0" text-anchor="end" dominant-baseline="middle" font-size="9" class="muted">阵容数据</text>
<text x="70.7" y="85.7" text-anchor="end" dominant-baseline="middle" font-size="9" class="muted">种子路径</text>
</g>
<g transform="translate(540,70)">
<text x="16" y="24" font-size="15" font-weight="700">HEROIC</text>
<text x="16" y="43" font-size="12" class="muted">因素分 1545.65 | 综合 70.39</text>
<polygon class="grid" points="135.0,132.0 147.7,137.3 153.0,150.0 147.7,162.7 135.0,168.0 122.3,162.7 117.0,150.0 122.3,137.3"/>
<polygon class="grid" points="135.0,114.0 160.5,124.5 171.0,150.0 160.5,175.5 135.0,186.0 109.5,175.5 99.0,150.0 109.5,124.5"/>
<polygon class="grid" points="135.0,96.0 173.2,111.8 189.0,150.0 173.2,188.2 135.0,204.0 96.8,188.2 81.0,150.0 96.8,111.8"/>
<polygon class="grid" points="135.0,78.0 185.9,99.1 207.0,150.0 185.9,200.9 135.0,222.0 84.1,200.9 63.0,150.0 84.1,99.1"/>
<line class="axis" x1="135.0" y1="150.0" x2="135.0" y2="78.0"/>
<line class="axis" x1="135.0" y1="150.0" x2="185.9" y2="99.1"/>
<line class="axis" x1="135.0" y1="150.0" x2="207.0" y2="150.0"/>
<line class="axis" x1="135.0" y1="150.0" x2="185.9" y2="200.9"/>
<line class="axis" x1="135.0" y1="150.0" x2="135.0" y2="222.0"/>
<line class="axis" x1="135.0" y1="150.0" x2="84.1" y2="200.9"/>
<line class="axis" x1="135.0" y1="150.0" x2="63.0" y2="150.0"/>
<line class="axis" x1="135.0" y1="150.0" x2="84.1" y2="99.1"/>
<polygon class="shape" points="135.0,93.0 148.9,136.1 157.3,150.0 171.8,186.8 135.0,222.0 84.1,200.9 88.2,150.0 90.9,105.9"/>
<text x="135.0" y="59.0" text-anchor="middle" dominant-baseline="middle" font-size="9" class="muted">基础实力</text>
<text x="199.3" y="85.7" text-anchor="start" dominant-baseline="middle" font-size="9" class="muted">HLTV状态</text>
<text x="226.0" y="150.0" text-anchor="start" dominant-baseline="middle" font-size="9" class="muted">火力</text>
<text x="199.3" y="214.3" text-anchor="start" dominant-baseline="middle" font-size="9" class="muted">地图样本</text>
<text x="135.0" y="241.0" text-anchor="middle" dominant-baseline="middle" font-size="9" class="muted">样本置信</text>
<text x="70.7" y="214.3" text-anchor="end" dominant-baseline="middle" font-size="9" class="muted">对手池</text>
<text x="44.0" y="150.0" text-anchor="end" dominant-baseline="middle" font-size="9" class="muted">阵容数据</text>
<text x="70.7" y="85.7" text-anchor="end" dominant-baseline="middle" font-size="9" class="muted">种子路径</text>
</g>
<g transform="translate(810,70)">
<text x="16" y="24" font-size="15" font-weight="700">M80</text>
<text x="16" y="43" font-size="12" class="muted">因素分 1543.40 | 综合 69.86</text>
<polygon class="grid" points="135.0,132.0 147.7,137.3 153.0,150.0 147.7,162.7 135.0,168.0 122.3,162.7 117.0,150.0 122.3,137.3"/>
<polygon class="grid" points="135.0,114.0 160.5,124.5 171.0,150.0 160.5,175.5 135.0,186.0 109.5,175.5 99.0,150.0 109.5,124.5"/>
<polygon class="grid" points="135.0,96.0 173.2,111.8 189.0,150.0 173.2,188.2 135.0,204.0 96.8,188.2 81.0,150.0 96.8,111.8"/>
<polygon class="grid" points="135.0,78.0 185.9,99.1 207.0,150.0 185.9,200.9 135.0,222.0 84.1,200.9 63.0,150.0 84.1,99.1"/>
<line class="axis" x1="135.0" y1="150.0" x2="135.0" y2="78.0"/>
<line class="axis" x1="135.0" y1="150.0" x2="185.9" y2="99.1"/>
<line class="axis" x1="135.0" y1="150.0" x2="207.0" y2="150.0"/>
<line class="axis" x1="135.0" y1="150.0" x2="185.9" y2="200.9"/>
<line class="axis" x1="135.0" y1="150.0" x2="135.0" y2="222.0"/>
<line class="axis" x1="135.0" y1="150.0" x2="84.1" y2="200.9"/>
<line class="axis" x1="135.0" y1="150.0" x2="63.0" y2="150.0"/>
<line class="axis" x1="135.0" y1="150.0" x2="84.1" y2="99.1"/>
<polygon class="shape" points="135.0,104.7 162.8,122.2 196.1,150.0 173.2,188.2 135.0,222.0 96.8,188.2 88.2,150.0 101.1,116.1"/>
<text x="135.0" y="59.0" text-anchor="middle" dominant-baseline="middle" font-size="9" class="muted">基础实力</text>
<text x="199.3" y="85.7" text-anchor="start" dominant-baseline="middle" font-size="9" class="muted">HLTV状态</text>
<text x="226.0" y="150.0" text-anchor="start" dominant-baseline="middle" font-size="9" class="muted">火力</text>
<text x="199.3" y="214.3" text-anchor="start" dominant-baseline="middle" font-size="9" class="muted">地图样本</text>
<text x="135.0" y="241.0" text-anchor="middle" dominant-baseline="middle" font-size="9" class="muted">样本置信</text>
<text x="70.7" y="214.3" text-anchor="end" dominant-baseline="middle" font-size="9" class="muted">对手池</text>
<text x="44.0" y="150.0" text-anchor="end" dominant-baseline="middle" font-size="9" class="muted">阵容数据</text>
<text x="70.7" y="85.7" text-anchor="end" dominant-baseline="middle" font-size="9" class="muted">种子路径</text>
</g>
<g transform="translate(0,350)">
<text x="16" y="24" font-size="15" font-weight="700">BetBoom</text>
<text x="16" y="43" font-size="12" class="muted">因素分 1539.70 | 综合 68.98</text>
<polygon class="grid" points="135.0,132.0 147.7,137.3 153.0,150.0 147.7,162.7 135.0,168.0 122.3,162.7 117.0,150.0 122.3,137.3"/>
<polygon class="grid" points="135.0,114.0 160.5,124.5 171.0,150.0 160.5,175.5 135.0,186.0 109.5,175.5 99.0,150.0 109.5,124.5"/>
<polygon class="grid" points="135.0,96.0 173.2,111.8 189.0,150.0 173.2,188.2 135.0,204.0 96.8,188.2 81.0,150.0 96.8,111.8"/>
<polygon class="grid" points="135.0,78.0 185.9,99.1 207.0,150.0 185.9,200.9 135.0,222.0 84.1,200.9 63.0,150.0 84.1,99.1"/>
<line class="axis" x1="135.0" y1="150.0" x2="135.0" y2="78.0"/>
<line class="axis" x1="135.0" y1="150.0" x2="185.9" y2="99.1"/>
<line class="axis" x1="135.0" y1="150.0" x2="207.0" y2="150.0"/>
<line class="axis" x1="135.0" y1="150.0" x2="185.9" y2="200.9"/>
<line class="axis" x1="135.0" y1="150.0" x2="135.0" y2="222.0"/>
<line class="axis" x1="135.0" y1="150.0" x2="84.1" y2="200.9"/>
<line class="axis" x1="135.0" y1="150.0" x2="63.0" y2="150.0"/>
<line class="axis" x1="135.0" y1="150.0" x2="84.1" y2="99.1"/>
<polygon class="shape" points="135.0,95.0 144.3,140.7 159.6,150.0 178.2,193.2 135.0,222.0 84.1,200.9 88.2,150.0 94.3,109.3"/>
<text x="135.0" y="59.0" text-anchor="middle" dominant-baseline="middle" font-size="9" class="muted">基础实力</text>
<text x="199.3" y="85.7" text-anchor="start" dominant-baseline="middle" font-size="9" class="muted">HLTV状态</text>
<text x="226.0" y="150.0" text-anchor="start" dominant-baseline="middle" font-size="9" class="muted">火力</text>
<text x="199.3" y="214.3" text-anchor="start" dominant-baseline="middle" font-size="9" class="muted">地图样本</text>
<text x="135.0" y="241.0" text-anchor="middle" dominant-baseline="middle" font-size="9" class="muted">样本置信</text>
<text x="70.7" y="214.3" text-anchor="end" dominant-baseline="middle" font-size="9" class="muted">对手池</text>
<text x="44.0" y="150.0" text-anchor="end" dominant-baseline="middle" font-size="9" class="muted">阵容数据</text>
<text x="70.7" y="85.7" text-anchor="end" dominant-baseline="middle" font-size="9" class="muted">种子路径</text>
</g>
<g transform="translate(270,350)">
<text x="16" y="24" font-size="15" font-weight="700">BIG</text>
<text x="16" y="43" font-size="12" class="muted">因素分 1535.90 | 综合 68.07</text>
<polygon class="grid" points="135.0,132.0 147.7,137.3 153.0,150.0 147.7,162.7 135.0,168.0 122.3,162.7 117.0,150.0 122.3,137.3"/>
<polygon class="grid" points="135.0,114.0 160.5,124.5 171.0,150.0 160.5,175.5 135.0,186.0 109.5,175.5 99.0,150.0 109.5,124.5"/>
<polygon class="grid" points="135.0,96.0 173.2,111.8 189.0,150.0 173.2,188.2 135.0,204.0 96.8,188.2 81.0,150.0 96.8,111.8"/>
<polygon class="grid" points="135.0,78.0 185.9,99.1 207.0,150.0 185.9,200.9 135.0,222.0 84.1,200.9 63.0,150.0 84.1,99.1"/>
<line class="axis" x1="135.0" y1="150.0" x2="135.0" y2="78.0"/>
<line class="axis" x1="135.0" y1="150.0" x2="185.9" y2="99.1"/>
<line class="axis" x1="135.0" y1="150.0" x2="207.0" y2="150.0"/>
<line class="axis" x1="135.0" y1="150.0" x2="185.9" y2="200.9"/>
<line class="axis" x1="135.0" y1="150.0" x2="135.0" y2="222.0"/>
<line class="axis" x1="135.0" y1="150.0" x2="84.1" y2="200.9"/>
<line class="axis" x1="135.0" y1="150.0" x2="63.0" y2="150.0"/>
<line class="axis" x1="135.0" y1="150.0" x2="84.1" y2="99.1"/>
<polygon class="shape" points="135.0,99.7 148.9,136.1 164.7,150.0 175.7,190.7 135.0,222.0 84.1,200.9 88.2,150.0 97.7,112.7"/>
<text x="135.0" y="59.0" text-anchor="middle" dominant-baseline="middle" font-size="9" class="muted">基础实力</text>
<text x="199.3" y="85.7" text-anchor="start" dominant-baseline="middle" font-size="9" class="muted">HLTV状态</text>
<text x="226.0" y="150.0" text-anchor="start" dominant-baseline="middle" font-size="9" class="muted">火力</text>
<text x="199.3" y="214.3" text-anchor="start" dominant-baseline="middle" font-size="9" class="muted">地图样本</text>
<text x="135.0" y="241.0" text-anchor="middle" dominant-baseline="middle" font-size="9" class="muted">样本置信</text>
<text x="70.7" y="214.3" text-anchor="end" dominant-baseline="middle" font-size="9" class="muted">对手池</text>
<text x="44.0" y="150.0" text-anchor="end" dominant-baseline="middle" font-size="9" class="muted">阵容数据</text>
<text x="70.7" y="85.7" text-anchor="end" dominant-baseline="middle" font-size="9" class="muted">种子路径</text>
</g>
<g transform="translate(540,350)">
<text x="16" y="24" font-size="15" font-weight="700">NRG</text>
<text x="16" y="43" font-size="12" class="muted">因素分 1521.74 | 综合 64.70</text>
<polygon class="grid" points="135.0,132.0 147.7,137.3 153.0,150.0 147.7,162.7 135.0,168.0 122.3,162.7 117.0,150.0 122.3,137.3"/>
<polygon class="grid" points="135.0,114.0 160.5,124.5 171.0,150.0 160.5,175.5 135.0,186.0 109.5,175.5 99.0,150.0 109.5,124.5"/>
<polygon class="grid" points="135.0,96.0 173.2,111.8 189.0,150.0 173.2,188.2 135.0,204.0 96.8,188.2 81.0,150.0 96.8,111.8"/>
<polygon class="grid" points="135.0,78.0 185.9,99.1 207.0,150.0 185.9,200.9 135.0,222.0 84.1,200.9 63.0,150.0 84.1,99.1"/>
<line class="axis" x1="135.0" y1="150.0" x2="135.0" y2="78.0"/>
<line class="axis" x1="135.0" y1="150.0" x2="185.9" y2="99.1"/>
<line class="axis" x1="135.0" y1="150.0" x2="207.0" y2="150.0"/>
<line class="axis" x1="135.0" y1="150.0" x2="185.9" y2="200.9"/>
<line class="axis" x1="135.0" y1="150.0" x2="135.0" y2="222.0"/>
<line class="axis" x1="135.0" y1="150.0" x2="84.1" y2="200.9"/>
<line class="axis" x1="135.0" y1="150.0" x2="63.0" y2="150.0"/>
<line class="axis" x1="135.0" y1="150.0" x2="84.1" y2="99.1"/>
<polygon class="shape" points="135.0,112.2 162.8,122.2 194.8,150.0 172.4,187.4 135.0,222.0 96.8,188.2 88.2,150.0 111.2,126.2"/>
<text x="135.0" y="59.0" text-anchor="middle" dominant-baseline="middle" font-size="9" class="muted">基础实力</text>
<text x="199.3" y="85.7" text-anchor="start" dominant-baseline="middle" font-size="9" class="muted">HLTV状态</text>
<text x="226.0" y="150.0" text-anchor="start" dominant-baseline="middle" font-size="9" class="muted">火力</text>
<text x="199.3" y="214.3" text-anchor="start" dominant-baseline="middle" font-size="9" class="muted">地图样本</text>
<text x="135.0" y="241.0" text-anchor="middle" dominant-baseline="middle" font-size="9" class="muted">样本置信</text>
<text x="70.7" y="214.3" text-anchor="end" dominant-baseline="middle" font-size="9" class="muted">对手池</text>
<text x="44.0" y="150.0" text-anchor="end" dominant-baseline="middle" font-size="9" class="muted">阵容数据</text>
<text x="70.7" y="85.7" text-anchor="end" dominant-baseline="middle" font-size="9" class="muted">种子路径</text>
</g>
<g transform="translate(810,350)">
<text x="16" y="24" font-size="15" font-weight="700">MIBR</text>
<text x="16" y="43" font-size="12" class="muted">因素分 1496.10 | 综合 58.60</text>
<polygon class="grid" points="135.0,132.0 147.7,137.3 153.0,150.0 147.7,162.7 135.0,168.0 122.3,162.7 117.0,150.0 122.3,137.3"/>
<polygon class="grid" points="135.0,114.0 160.5,124.5 171.0,150.0 160.5,175.5 135.0,186.0 109.5,175.5 99.0,150.0 109.5,124.5"/>
<polygon class="grid" points="135.0,96.0 173.2,111.8 189.0,150.0 173.2,188.2 135.0,204.0 96.8,188.2 81.0,150.0 96.8,111.8"/>
<polygon class="grid" points="135.0,78.0 185.9,99.1 207.0,150.0 185.9,200.9 135.0,222.0 84.1,200.9 63.0,150.0 84.1,99.1"/>
<line class="axis" x1="135.0" y1="150.0" x2="135.0" y2="78.0"/>
<line class="axis" x1="135.0" y1="150.0" x2="185.9" y2="99.1"/>
<line class="axis" x1="135.0" y1="150.0" x2="207.0" y2="150.0"/>
<line class="axis" x1="135.0" y1="150.0" x2="185.9" y2="200.9"/>
<line class="axis" x1="135.0" y1="150.0" x2="135.0" y2="222.0"/>
<line class="axis" x1="135.0" y1="150.0" x2="84.1" y2="200.9"/>
<line class="axis" x1="135.0" y1="150.0" x2="63.0" y2="150.0"/>
<line class="axis" x1="135.0" y1="150.0" x2="84.1" y2="99.1"/>
<polygon class="shape" points="135.0,107.4 144.3,140.7 167.0,150.0 172.8,187.8 135.0,222.0 96.8,188.2 88.2,150.0 104.5,119.5"/>
<text x="135.0" y="59.0" text-anchor="middle" dominant-baseline="middle" font-size="9" class="muted">基础实力</text>
<text x="199.3" y="85.7" text-anchor="start" dominant-baseline="middle" font-size="9" class="muted">HLTV状态</text>
<text x="226.0" y="150.0" text-anchor="start" dominant-baseline="middle" font-size="9" class="muted">火力</text>
<text x="199.3" y="214.3" text-anchor="start" dominant-baseline="middle" font-size="9" class="muted">地图样本</text>
<text x="135.0" y="241.0" text-anchor="middle" dominant-baseline="middle" font-size="9" class="muted">样本置信</text>
<text x="70.7" y="214.3" text-anchor="end" dominant-baseline="middle" font-size="9" class="muted">对手池</text>
<text x="44.0" y="150.0" text-anchor="end" dominant-baseline="middle" font-size="9" class="muted">阵容数据</text>
<text x="70.7" y="85.7" text-anchor="end" dominant-baseline="middle" font-size="9" class="muted">种子路径</text>
</g>
<g transform="translate(0,630)">
<text x="16" y="24" font-size="15" font-weight="700">SINNERS</text>
<text x="16" y="43" font-size="12" class="muted">因素分 1495.85 | 综合 58.54</text>
<polygon class="grid" points="135.0,132.0 147.7,137.3 153.0,150.0 147.7,162.7 135.0,168.0 122.3,162.7 117.0,150.0 122.3,137.3"/>
<polygon class="grid" points="135.0,114.0 160.5,124.5 171.0,150.0 160.5,175.5 135.0,186.0 109.5,175.5 99.0,150.0 109.5,124.5"/>
<polygon class="grid" points="135.0,96.0 173.2,111.8 189.0,150.0 173.2,188.2 135.0,204.0 96.8,188.2 81.0,150.0 96.8,111.8"/>
<polygon class="grid" points="135.0,78.0 185.9,99.1 207.0,150.0 185.9,200.9 135.0,222.0 84.1,200.9 63.0,150.0 84.1,99.1"/>
<line class="axis" x1="135.0" y1="150.0" x2="135.0" y2="78.0"/>
<line class="axis" x1="135.0" y1="150.0" x2="185.9" y2="99.1"/>
<line class="axis" x1="135.0" y1="150.0" x2="207.0" y2="150.0"/>
<line class="axis" x1="135.0" y1="150.0" x2="185.9" y2="200.9"/>
<line class="axis" x1="135.0" y1="150.0" x2="135.0" y2="222.0"/>
<line class="axis" x1="135.0" y1="150.0" x2="84.1" y2="200.9"/>
<line class="axis" x1="135.0" y1="150.0" x2="63.0" y2="150.0"/>
<line class="axis" x1="135.0" y1="150.0" x2="84.1" y2="99.1"/>
<polygon class="shape" points="135.0,111.5 139.6,145.4 153.3,150.0 185.9,200.9 135.0,222.0 84.1,200.9 88.2,150.0 107.8,122.8"/>
<text x="135.0" y="59.0" text-anchor="middle" dominant-baseline="middle" font-size="9" class="muted">基础实力</text>
<text x="199.3" y="85.7" text-anchor="start" dominant-baseline="middle" font-size="9" class="muted">HLTV状态</text>
<text x="226.0" y="150.0" text-anchor="start" dominant-baseline="middle" font-size="9" class="muted">火力</text>
<text x="199.3" y="214.3" text-anchor="start" dominant-baseline="middle" font-size="9" class="muted">地图样本</text>
<text x="135.0" y="241.0" text-anchor="middle" dominant-baseline="middle" font-size="9" class="muted">样本置信</text>
<text x="70.7" y="214.3" text-anchor="end" dominant-baseline="middle" font-size="9" class="muted">对手池</text>
<text x="44.0" y="150.0" text-anchor="end" dominant-baseline="middle" font-size="9" class="muted">阵容数据</text>
<text x="70.7" y="85.7" text-anchor="end" dominant-baseline="middle" font-size="9" class="muted">种子路径</text>
</g>
<g transform="translate(270,630)">
<text x="16" y="24" font-size="15" font-weight="700">TYLOO</text>
<text x="16" y="43" font-size="12" class="muted">因素分 1480.25 | 综合 54.82</text>
<polygon class="grid" points="135.0,132.0 147.7,137.3 153.0,150.0 147.7,162.7 135.0,168.0 122.3,162.7 117.0,150.0 122.3,137.3"/>
<polygon class="grid" points="135.0,114.0 160.5,124.5 171.0,150.0 160.5,175.5 135.0,186.0 109.5,175.5 99.0,150.0 109.5,124.5"/>
<polygon class="grid" points="135.0,96.0 173.2,111.8 189.0,150.0 173.2,188.2 135.0,204.0 96.8,188.2 81.0,150.0 96.8,111.8"/>
<polygon class="grid" points="135.0,78.0 185.9,99.1 207.0,150.0 185.9,200.9 135.0,222.0 84.1,200.9 63.0,150.0 84.1,99.1"/>
<line class="axis" x1="135.0" y1="150.0" x2="135.0" y2="78.0"/>
<line class="axis" x1="135.0" y1="150.0" x2="185.9" y2="99.1"/>
<line class="axis" x1="135.0" y1="150.0" x2="207.0" y2="150.0"/>
<line class="axis" x1="135.0" y1="150.0" x2="185.9" y2="200.9"/>
<line class="axis" x1="135.0" y1="150.0" x2="135.0" y2="222.0"/>
<line class="axis" x1="135.0" y1="150.0" x2="84.1" y2="200.9"/>
<line class="axis" x1="135.0" y1="150.0" x2="63.0" y2="150.0"/>
<line class="axis" x1="135.0" y1="150.0" x2="84.1" y2="99.1"/>
<polygon class="shape" points="135.0,117.0 153.5,131.5 180.1,150.0 165.9,180.9 135.0,222.0 101.9,183.1 88.2,150.0 114.6,129.6"/>
<text x="135.0" y="59.0" text-anchor="middle" dominant-baseline="middle" font-size="9" class="muted">基础实力</text>
<text x="199.3" y="85.7" text-anchor="start" dominant-baseline="middle" font-size="9" class="muted">HLTV状态</text>
<text x="226.0" y="150.0" text-anchor="start" dominant-baseline="middle" font-size="9" class="muted">火力</text>
<text x="199.3" y="214.3" text-anchor="start" dominant-baseline="middle" font-size="9" class="muted">地图样本</text>
<text x="135.0" y="241.0" text-anchor="middle" dominant-baseline="middle" font-size="9" class="muted">样本置信</text>
<text x="70.7" y="214.3" text-anchor="end" dominant-baseline="middle" font-size="9" class="muted">对手池</text>
<text x="44.0" y="150.0" text-anchor="end" dominant-baseline="middle" font-size="9" class="muted">阵容数据</text>
<text x="70.7" y="85.7" text-anchor="end" dominant-baseline="middle" font-size="9" class="muted">种子路径</text>
</g>
<g transform="translate(540,630)">
<text x="16" y="24" font-size="15" font-weight="700">Sharks</text>
<text x="16" y="43" font-size="12" class="muted">因素分 1470.73 | 综合 52.55</text>
<polygon class="grid" points="135.0,132.0 147.7,137.3 153.0,150.0 147.7,162.7 135.0,168.0 122.3,162.7 117.0,150.0 122.3,137.3"/>
<polygon class="grid" points="135.0,114.0 160.5,124.5 171.0,150.0 160.5,175.5 135.0,186.0 109.5,175.5 99.0,150.0 109.5,124.5"/>
<polygon class="grid" points="135.0,96.0 173.2,111.8 189.0,150.0 173.2,188.2 135.0,204.0 96.8,188.2 81.0,150.0 96.8,111.8"/>
<polygon class="grid" points="135.0,78.0 185.9,99.1 207.0,150.0 185.9,200.9 135.0,222.0 84.1,200.9 63.0,150.0 84.1,99.1"/>
<line class="axis" x1="135.0" y1="150.0" x2="135.0" y2="78.0"/>
<line class="axis" x1="135.0" y1="150.0" x2="185.9" y2="99.1"/>
<line class="axis" x1="135.0" y1="150.0" x2="207.0" y2="150.0"/>
<line class="axis" x1="135.0" y1="150.0" x2="185.9" y2="200.9"/>
<line class="axis" x1="135.0" y1="150.0" x2="135.0" y2="222.0"/>
<line class="axis" x1="135.0" y1="150.0" x2="84.1" y2="200.9"/>
<line class="axis" x1="135.0" y1="150.0" x2="63.0" y2="150.0"/>
<line class="axis" x1="135.0" y1="150.0" x2="84.1" y2="99.1"/>
<polygon class="shape" points="135.0,119.6 144.3,140.7 167.9,150.0 181.0,196.0 135.0,222.0 96.8,188.2 88.2,150.0 118.0,133.0"/>
<text x="135.0" y="59.0" text-anchor="middle" dominant-baseline="middle" font-size="9" class="muted">基础实力</text>
<text x="199.3" y="85.7" text-anchor="start" dominant-baseline="middle" font-size="9" class="muted">HLTV状态</text>
<text x="226.0" y="150.0" text-anchor="start" dominant-baseline="middle" font-size="9" class="muted">火力</text>
<text x="199.3" y="214.3" text-anchor="start" dominant-baseline="middle" font-size="9" class="muted">地图样本</text>
<text x="135.0" y="241.0" text-anchor="middle" dominant-baseline="middle" font-size="9" class="muted">样本置信</text>
<text x="70.7" y="214.3" text-anchor="end" dominant-baseline="middle" font-size="9" class="muted">对手池</text>
<text x="44.0" y="150.0" text-anchor="end" dominant-baseline="middle" font-size="9" class="muted">阵容数据</text>
<text x="70.7" y="85.7" text-anchor="end" dominant-baseline="middle" font-size="9" class="muted">种子路径</text>
</g>
<g transform="translate(810,630)">
<text x="16" y="24" font-size="15" font-weight="700">THUNDER dOWNUNDER</text>
<text x="16" y="43" font-size="12" class="muted">因素分 1443.84 | 综合 46.15</text>
<polygon class="grid" points="135.0,132.0 147.7,137.3 153.0,150.0 147.7,162.7 135.0,168.0 122.3,162.7 117.0,150.0 122.3,137.3"/>
<polygon class="grid" points="135.0,114.0 160.5,124.5 171.0,150.0 160.5,175.5 135.0,186.0 109.5,175.5 99.0,150.0 109.5,124.5"/>
<polygon class="grid" points="135.0,96.0 173.2,111.8 189.0,150.0 173.2,188.2 135.0,204.0 96.8,188.2 81.0,150.0 96.8,111.8"/>
<polygon class="grid" points="135.0,78.0 185.9,99.1 207.0,150.0 185.9,200.9 135.0,222.0 84.1,200.9 63.0,150.0 84.1,99.1"/>
<line class="axis" x1="135.0" y1="150.0" x2="135.0" y2="78.0"/>
<line class="axis" x1="135.0" y1="150.0" x2="185.9" y2="99.1"/>
<line class="axis" x1="135.0" y1="150.0" x2="207.0" y2="150.0"/>
<line class="axis" x1="135.0" y1="150.0" x2="185.9" y2="200.9"/>
<line class="axis" x1="135.0" y1="150.0" x2="135.0" y2="222.0"/>
<line class="axis" x1="135.0" y1="150.0" x2="84.1" y2="200.9"/>
<line class="axis" x1="135.0" y1="150.0" x2="63.0" y2="150.0"/>
<line class="axis" x1="135.0" y1="150.0" x2="84.1" y2="99.1"/>
<polygon class="shape" points="135.0,139.3 185.9,99.1 207.0,150.0 135.0,150.0 135.0,176.6 101.9,183.1 81.7,150.0 131.6,146.6"/>
<text x="135.0" y="59.0" text-anchor="middle" dominant-baseline="middle" font-size="9" class="muted">基础实力</text>
<text x="199.3" y="85.7" text-anchor="start" dominant-baseline="middle" font-size="9" class="muted">HLTV状态</text>
<text x="226.0" y="150.0" text-anchor="start" dominant-baseline="middle" font-size="9" class="muted">火力</text>
<text x="199.3" y="214.3" text-anchor="start" dominant-baseline="middle" font-size="9" class="muted">地图样本</text>
<text x="135.0" y="241.0" text-anchor="middle" dominant-baseline="middle" font-size="9" class="muted">样本置信</text>
<text x="70.7" y="214.3" text-anchor="end" dominant-baseline="middle" font-size="9" class="muted">对手池</text>
<text x="44.0" y="150.0" text-anchor="end" dominant-baseline="middle" font-size="9" class="muted">阵容数据</text>
<text x="70.7" y="85.7" text-anchor="end" dominant-baseline="middle" font-size="9" class="muted">种子路径</text>
</g>
<g transform="translate(0,910)">
<text x="16" y="24" font-size="15" font-weight="700">Lynn Vision</text>
<text x="16" y="43" font-size="12" class="muted">因素分 1432.34 | 综合 43.41</text>
<polygon class="grid" points="135.0,132.0 147.7,137.3 153.0,150.0 147.7,162.7 135.0,168.0 122.3,162.7 117.0,150.0 122.3,137.3"/>
<polygon class="grid" points="135.0,114.0 160.5,124.5 171.0,150.0 160.5,175.5 135.0,186.0 109.5,175.5 99.0,150.0 109.5,124.5"/>
<polygon class="grid" points="135.0,96.0 173.2,111.8 189.0,150.0 173.2,188.2 135.0,204.0 96.8,188.2 81.0,150.0 96.8,111.8"/>
<polygon class="grid" points="135.0,78.0 185.9,99.1 207.0,150.0 185.9,200.9 135.0,222.0 84.1,200.9 63.0,150.0 84.1,99.1"/>
<line class="axis" x1="135.0" y1="150.0" x2="135.0" y2="78.0"/>
<line class="axis" x1="135.0" y1="150.0" x2="185.9" y2="99.1"/>
<line class="axis" x1="135.0" y1="150.0" x2="207.0" y2="150.0"/>
<line class="axis" x1="135.0" y1="150.0" x2="185.9" y2="200.9"/>
<line class="axis" x1="135.0" y1="150.0" x2="135.0" y2="222.0"/>
<line class="axis" x1="135.0" y1="150.0" x2="84.1" y2="200.9"/>
<line class="axis" x1="135.0" y1="150.0" x2="63.0" y2="150.0"/>
<line class="axis" x1="135.0" y1="150.0" x2="84.1" y2="99.1"/>
<polygon class="shape" points="135.0,134.8 153.5,131.5 171.7,150.0 164.3,179.3 135.0,222.0 101.9,183.1 88.2,150.0 128.2,143.2"/>
<text x="135.0" y="59.0" text-anchor="middle" dominant-baseline="middle" font-size="9" class="muted">基础实力</text>
<text x="199.3" y="85.7" text-anchor="start" dominant-baseline="middle" font-size="9" class="muted">HLTV状态</text>
<text x="226.0" y="150.0" text-anchor="start" dominant-baseline="middle" font-size="9" class="muted">火力</text>
<text x="199.3" y="214.3" text-anchor="start" dominant-baseline="middle" font-size="9" class="muted">地图样本</text>
<text x="135.0" y="241.0" text-anchor="middle" dominant-baseline="middle" font-size="9" class="muted">样本置信</text>
<text x="70.7" y="214.3" text-anchor="end" dominant-baseline="middle" font-size="9" class="muted">对手池</text>
<text x="44.0" y="150.0" text-anchor="end" dominant-baseline="middle" font-size="9" class="muted">阵容数据</text>
<text x="70.7" y="85.7" text-anchor="end" dominant-baseline="middle" font-size="9" class="muted">种子路径</text>
</g>
<g transform="translate(270,910)">
<text x="16" y="24" font-size="15" font-weight="700">Liquid</text>
<text x="16" y="43" font-size="12" class="muted">因素分 1429.42 | 综合 42.72</text>
<polygon class="grid" points="135.0,132.0 147.7,137.3 153.0,150.0 147.7,162.7 135.0,168.0 122.3,162.7 117.0,150.0 122.3,137.3"/>
<polygon class="grid" points="135.0,114.0 160.5,124.5 171.0,150.0 160.5,175.5 135.0,186.0 109.5,175.5 99.0,150.0 109.5,124.5"/>
<polygon class="grid" points="135.0,96.0 173.2,111.8 189.0,150.0 173.2,188.2 135.0,204.0 96.8,188.2 81.0,150.0 96.8,111.8"/>
<polygon class="grid" points="135.0,78.0 185.9,99.1 207.0,150.0 185.9,200.9 135.0,222.0 84.1,200.9 63.0,150.0 84.1,99.1"/>
<line class="axis" x1="135.0" y1="150.0" x2="135.0" y2="78.0"/>
<line class="axis" x1="135.0" y1="150.0" x2="185.9" y2="99.1"/>
<line class="axis" x1="135.0" y1="150.0" x2="207.0" y2="150.0"/>
<line class="axis" x1="135.0" y1="150.0" x2="185.9" y2="200.9"/>
<line class="axis" x1="135.0" y1="150.0" x2="135.0" y2="222.0"/>
<line class="axis" x1="135.0" y1="150.0" x2="84.1" y2="200.9"/>
<line class="axis" x1="135.0" y1="150.0" x2="63.0" y2="150.0"/>
<line class="axis" x1="135.0" y1="150.0" x2="84.1" y2="99.1"/>
<polygon class="shape" points="135.0,131.6 144.3,140.7 158.4,150.0 167.7,182.7 135.0,222.0 96.8,188.2 88.2,150.0 124.8,139.8"/>
<text x="135.0" y="59.0" text-anchor="middle" dominant-baseline="middle" font-size="9" class="muted">基础实力</text>
<text x="199.3" y="85.7" text-anchor="start" dominant-baseline="middle" font-size="9" class="muted">HLTV状态</text>
<text x="226.0" y="150.0" text-anchor="start" dominant-baseline="middle" font-size="9" class="muted">火力</text>
<text x="199.3" y="214.3" text-anchor="start" dominant-baseline="middle" font-size="9" class="muted">地图样本</text>
<text x="135.0" y="241.0" text-anchor="middle" dominant-baseline="middle" font-size="9" class="muted">样本置信</text>
<text x="70.7" y="214.3" text-anchor="end" dominant-baseline="middle" font-size="9" class="muted">对手池</text>
<text x="44.0" y="150.0" text-anchor="end" dominant-baseline="middle" font-size="9" class="muted">阵容数据</text>
<text x="70.7" y="85.7" text-anchor="end" dominant-baseline="middle" font-size="9" class="muted">种子路径</text>
</g>
<g transform="translate(540,910)">
<text x="16" y="24" font-size="15" font-weight="700">Gaimin Gladiators</text>
<text x="16" y="43" font-size="12" class="muted">因素分 1422.17 | 综合 40.99</text>
<polygon class="grid" points="135.0,132.0 147.7,137.3 153.0,150.0 147.7,162.7 135.0,168.0 122.3,162.7 117.0,150.0 122.3,137.3"/>
<polygon class="grid" points="135.0,114.0 160.5,124.5 171.0,150.0 160.5,175.5 135.0,186.0 109.5,175.5 99.0,150.0 109.5,124.5"/>
<polygon class="grid" points="135.0,96.0 173.2,111.8 189.0,150.0 173.2,188.2 135.0,204.0 96.8,188.2 81.0,150.0 96.8,111.8"/>
<polygon class="grid" points="135.0,78.0 185.9,99.1 207.0,150.0 185.9,200.9 135.0,222.0 84.1,200.9 63.0,150.0 84.1,99.1"/>
<line class="axis" x1="135.0" y1="150.0" x2="135.0" y2="78.0"/>
<line class="axis" x1="135.0" y1="150.0" x2="185.9" y2="99.1"/>
<line class="axis" x1="135.0" y1="150.0" x2="207.0" y2="150.0"/>
<line class="axis" x1="135.0" y1="150.0" x2="185.9" y2="200.9"/>
<line class="axis" x1="135.0" y1="150.0" x2="135.0" y2="222.0"/>
<line class="axis" x1="135.0" y1="150.0" x2="84.1" y2="200.9"/>
<line class="axis" x1="135.0" y1="150.0" x2="63.0" y2="150.0"/>
<line class="axis" x1="135.0" y1="150.0" x2="84.1" y2="99.1"/>
<polygon class="shape" points="135.0,122.2 135.0,150.0 135.1,150.0 164.5,179.5 135.0,222.0 96.8,188.2 88.2,150.0 121.4,136.4"/>
<text x="135.0" y="59.0" text-anchor="middle" dominant-baseline="middle" font-size="9" class="muted">基础实力</text>
<text x="199.3" y="85.7" text-anchor="start" dominant-baseline="middle" font-size="9" class="muted">HLTV状态</text>
<text x="226.0" y="150.0" text-anchor="start" dominant-baseline="middle" font-size="9" class="muted">火力</text>
<text x="199.3" y="214.3" text-anchor="start" dominant-baseline="middle" font-size="9" class="muted">地图样本</text>
<text x="135.0" y="241.0" text-anchor="middle" dominant-baseline="middle" font-size="9" class="muted">样本置信</text>
<text x="70.7" y="214.3" text-anchor="end" dominant-baseline="middle" font-size="9" class="muted">对手池</text>
<text x="44.0" y="150.0" text-anchor="end" dominant-baseline="middle" font-size="9" class="muted">阵容数据</text>
<text x="70.7" y="85.7" text-anchor="end" dominant-baseline="middle" font-size="9" class="muted">种子路径</text>
</g>
<g transform="translate(810,910)">
<text x="16" y="24" font-size="15" font-weight="700">FlyQuest</text>
<text x="16" y="43" font-size="12" class="muted">因素分 1382.31 | 综合 31.50</text>
<polygon class="grid" points="135.0,132.0 147.7,137.3 153.0,150.0 147.7,162.7 135.0,168.0 122.3,162.7 117.0,150.0 122.3,137.3"/>
<polygon class="grid" points="135.0,114.0 160.5,124.5 171.0,150.0 160.5,175.5 135.0,186.0 109.5,175.5 99.0,150.0 109.5,124.5"/>
<polygon class="grid" points="135.0,96.0 173.2,111.8 189.0,150.0 173.2,188.2 135.0,204.0 96.8,188.2 81.0,150.0 96.8,111.8"/>
<polygon class="grid" points="135.0,78.0 185.9,99.1 207.0,150.0 185.9,200.9 135.0,222.0 84.1,200.9 63.0,150.0 84.1,99.1"/>
<line class="axis" x1="135.0" y1="150.0" x2="135.0" y2="78.0"/>
<line class="axis" x1="135.0" y1="150.0" x2="185.9" y2="99.1"/>
<line class="axis" x1="135.0" y1="150.0" x2="207.0" y2="150.0"/>
<line class="axis" x1="135.0" y1="150.0" x2="185.9" y2="200.9"/>
<line class="axis" x1="135.0" y1="150.0" x2="135.0" y2="222.0"/>
<line class="axis" x1="135.0" y1="150.0" x2="84.1" y2="200.9"/>
<line class="axis" x1="135.0" y1="150.0" x2="63.0" y2="150.0"/>
<line class="axis" x1="135.0" y1="150.0" x2="84.1" y2="99.1"/>
<polygon class="shape" points="135.0,150.0 158.1,126.9 167.7,150.0 144.9,159.9 135.0,190.3 101.9,183.1 63.0,150.0 135.0,150.0"/>
<text x="135.0" y="59.0" text-anchor="middle" dominant-baseline="middle" font-size="9" class="muted">基础实力</text>
<text x="199.3" y="85.7" text-anchor="start" dominant-baseline="middle" font-size="9" class="muted">HLTV状态</text>
<text x="226.0" y="150.0" text-anchor="start" dominant-baseline="middle" font-size="9" class="muted">火力</text>
<text x="199.3" y="214.3" text-anchor="start" dominant-baseline="middle" font-size="9" class="muted">地图样本</text>
<text x="135.0" y="241.0" text-anchor="middle" dominant-baseline="middle" font-size="9" class="muted">样本置信</text>
<text x="70.7" y="214.3" text-anchor="end" dominant-baseline="middle" font-size="9" class="muted">对手池</text>
<text x="44.0" y="150.0" text-anchor="end" dominant-baseline="middle" font-size="9" class="muted">阵容数据</text>
<text x="70.7" y="85.7" text-anchor="end" dominant-baseline="middle" font-size="9" class="muted">种子路径</text>
</g>
</svg>
